<svg xmlns="http://www.w3.org/2000/svg" viewBox="80 100 770 970" role="img" aria-label="Gemeente Zuiddrecht"><title>Gemeente Zuiddrecht</title><path fill="#cc0000" d="M576,985.41c-56,41.39-101.43,66.06-111,71.11a4,4,0,0,1-3.72,0c-25.57-13.5-307.48-167-361.37-406a4,4,0,0,1,7.38-2.81C145.81,716.62,232.64,767,294.78,800.38c52.5,28.23,113.62,50.21,168.34,80.36C508.22,905.59,549,936,577,980.05A4,4,0,0,1,576,985.41Z"/><path fill="#cc0000" d="M834.71,234.14V120a8.9,8.9,0,0,0-8.9-8.91h-273a14.59,14.59,0,0,0-13.35,10.23l-19,70.27a14.58,14.58,0,0,1-13.35,10.21H383V165.42c36.84-1.34,62.42-7.45,80.16-15.1,29.49-12.74,37.35-29.78,39.36-36.44a2.22,2.22,0,0,0-2.13-2.84H334.61c-33.88,0-67.91,9.21-86.08,40.1C229.15,184.08,230.29,229.21,232,266c0,0-50-66.22-40.76-148.87A5.52,5.52,0,0,0,185.8,111H100.32a8.79,8.79,0,0,0-8.78,8.79v22.49c4.86,79.25,49.14,288.57,371.58,385.39C735,609.36,775.42,734.6,783.32,756.54a1.38,1.38,0,0,0,2.53.17c75.3-143.9-81.49-247.52-81.49-247.52,31.33,0,79.23,17.94,118,39.79a8.28,8.28,0,0,0,12.37-7.2V382.13A14.6,14.6,0,0,0,816.56,368c-13.5,3.39-30,6.68-32.87,7.23-39.46,7.77-84.75,11.15-122-8.73s-47.26-66.27-18.33-98.23c25.3-28,65.53-37.5,102.29-35,23.56,1.62,55.18,7.59,73.71,12.63A12.16,12.16,0,0,0,834.71,234.14Z"/><path fill="#3669a5" d="M654.87,919.8a4,4,0,0,1-6-.11c-13.56-16.25-75.46-86-185.73-146.42a756.44,756.44,0,0,0-80.16-38C209.43,665.09,100.27,592,91.54,397.16v-6.22a4,4,0,0,1,7.21-2.34c63.61,87,144.69,137.9,243.16,186.77,40.28,20,81.17,36.33,121.21,53.25,66.15,28,130,57.54,184.73,107.8,16.18,14.85,29.09,29.15,36.81,50C695.75,816.43,702.55,867.47,654.87,919.8Z"/></svg>
